<svg id="Layer_1" data-name="Layer 1" xmlns="http://www.w3.org/2000/svg" viewBox="0 0 248.64 196.76"><defs><style>.cls-1{fill:#92c8ec;fill-rule:evenodd;}</style></defs><title>endless_knot</title><path class="cls-1" d="M89.05,47.34l10,9.77c7.6,7.42,15.09,14.8,22.65,22.21L107.63,94,60.57,47.78,98.24,8.46l22.59,22.16-14,14.62-8.12-8L89.05,47.34ZM131.53,72.6,146,86.78l-30,31.38L101.49,104l30-31.37ZM139.74,97l47.66,46.81-37.66,39.32-23.31-22.86,14-14.62,8.85,8.67,9.65-10.07L125.7,111.68l14-14.66Zm6.6-89.31,38.76,38L163.39,68.4,149,54.32l7.69-8-9.95-9.77c-10.54,11-21.07,21.95-31.57,33L100.74,55.29l45.6-47.58ZM138.9,48.33l30.55,30L155.62,92.76l-30.56-30L138.9,48.33Zm56.15,7.16,39.34,38.6-.32.34.33.33-37.36,39-23.53-23.11,14-14.63,9.08,8.91,9.65-10.08L195.62,84.43l-31.79,32.76-14.25-14,45.47-47.72ZM100.3,183.92l-38.76-38,22.55-23.55,14.35,14.08-8.53,8.92,10,9.76,32.22-33.63,14.46,14.19L100.3,183.92Zm8-41.35-30.66-30.1,14-14.63,30.67,30.1-14,14.63Zm-56.76-6.43-39-38.27,38.35-40,22.7,22.29-14,14.63-8.24-8.08L41.07,97.43l10,9.77L83.24,73.57,97.7,87.76c-15.32,16-30.65,32.24-46.11,48.38Z"/></svg>