<?xml version="1.0" standalone="no"?>
<!DOCTYPE svg PUBLIC "-//W3C//DTD SVG 20010904//EN"
 "http://www.w3.org/TR/2001/REC-SVG-20010904/DTD/svg10.dtd">
<svg version="1.0" xmlns="http://www.w3.org/2000/svg"
 width="996.000000pt" height="996.000000pt" viewBox="0 0 996.000000 996.000000"
 preserveAspectRatio="xMidYMid meet">
<metadata>
Created by potrace 1.11, written by Peter Selinger 2001-2013
</metadata>
<g transform="translate(0.000000,996.000000) scale(0.100000,-0.100000)"
fill="#000000" stroke="none">
<path d="M5844 8591 c-10 -10 -95 -98 -189 -196 -93 -97 -201 -210 -240 -250
-38 -40 -142 -148 -230 -240 -254 -266 -271 -283 -450 -470 -93 -97 -197 -205
-230 -239 -33 -34 -143 -149 -245 -256 -102 -106 -193 -200 -202 -209 -10 -8
-18 -18 -18 -22 0 -4 84 -91 188 -193 103 -102 231 -230 285 -283 l98 -98 122
126 c67 69 172 177 232 241 216 226 451 471 520 543 39 40 142 148 229 239 88
91 162 166 165 166 9 0 391 -379 391 -387 -1 -5 -68 -78 -151 -163 l-150 -154
288 -283 288 -283 75 79 c114 119 397 415 470 491 157 163 315 331 318 338 2
6 -159 166 -758 752 -80 78 -288 282 -463 453 -175 172 -319 313 -321 314 -1
2 -11 -5 -22 -16z"/>
<path d="M3783 8423 c-78 -82 -174 -182 -214 -224 -41 -42 -146 -152 -234
-244 -88 -92 -191 -200 -228 -239 -38 -39 -135 -140 -215 -224 -174 -182 -275
-287 -385 -400 l-80 -82 86 -89 c48 -49 87 -88 87 -86 0 1 83 -80 184 -179
300 -296 953 -938 1154 -1134 103 -101 229 -224 280 -275 l94 -91 110 114 c60
63 174 182 251 264 78 82 154 160 170 174 15 14 27 29 27 33 0 7 -92 99 -427
426 -94 92 -316 310 -492 483 -177 172 -325 317 -329 320 -4 3 -17 17 -30 31
l-23 26 103 107 c57 59 144 150 194 202 l90 94 21 -22 c11 -13 84 -86 161
-162 l142 -139 57 61 c73 77 312 326 421 440 l83 86 -238 235 c-131 130 -239
236 -240 235 -2 0 -96 91 -209 203 -114 112 -212 203 -219 203 -6 0 -75 -66
-152 -147z"/>
<path d="M5502 6921 c-31 -33 -131 -137 -222 -232 -91 -95 -189 -197 -218
-227 l-53 -55 218 -214 c120 -118 360 -353 533 -523 173 -170 350 -343 392
-384 42 -42 79 -76 82 -76 2 0 11 6 18 14 7 7 94 98 193 201 99 103 215 224
258 268 42 44 77 83 77 88 0 10 26 -16 -1048 1039 -90 88 -165 160 -168 160
-2 0 -30 -27 -62 -59z"/>
<path d="M7683 6563 c-66 -71 -147 -156 -179 -189 -51 -53 -170 -178 -405
-425 -62 -66 -312 -327 -414 -434 -38 -41 -131 -138 -205 -216 -74 -78 -172
-180 -217 -227 -46 -47 -83 -87 -83 -88 0 0 -42 -45 -94 -99 l-95 -97 231
-226 c126 -125 255 -252 285 -282 l55 -54 151 156 c84 86 253 260 377 388 124
127 270 278 325 335 55 56 170 175 256 264 86 88 160 161 165 161 5 0 103 -92
217 -204 l209 -204 -74 -77 c-40 -42 -111 -116 -156 -163 -46 -48 -100 -104
-119 -126 l-35 -38 -30 28 c-17 16 -88 85 -159 154 -70 69 -139 136 -153 149
l-25 23 -63 -65 c-35 -36 -146 -152 -248 -257 -102 -106 -200 -208 -218 -226
l-32 -33 134 -133 c319 -316 798 -783 806 -786 5 -2 37 27 72 63 35 36 97 101
138 144 41 43 154 160 250 261 96 101 195 204 220 230 25 25 128 133 230 240
102 106 212 221 245 255 279 291 339 356 341 370 3 18 -2 22 -541 550 -190
187 -446 438 -568 558 -378 372 -456 447 -465 447 -4 0 -62 -57 -129 -127z"/>
<path d="M1961 6522 c-185 -194 -404 -422 -486 -507 -49 -52 -162 -169 -250
-261 -88 -91 -189 -197 -225 -234 -36 -37 -139 -146 -230 -241 -91 -95 -186
-194 -213 -220 -26 -26 -47 -51 -47 -57 0 -5 44 -52 98 -105 53 -53 176 -173
272 -267 96 -95 339 -333 540 -530 689 -676 649 -638 658 -623 6 9 64 71 372
393 54 56 322 337 410 430 193 203 373 392 415 435 28 29 120 125 205 215 85
90 178 187 205 215 148 154 225 237 225 241 0 2 -41 44 -91 92 -51 48 -99 95
-108 105 -9 11 -44 47 -79 80 -35 34 -115 113 -179 175 l-115 114 -25 -24
c-14 -13 -45 -43 -69 -68 -23 -25 -73 -77 -111 -116 -37 -40 -140 -147 -228
-239 -88 -92 -202 -211 -253 -264 -51 -53 -144 -150 -206 -216 -63 -66 -179
-187 -258 -269 l-144 -148 -199 195 -200 196 75 77 c41 43 95 99 120 124 177
185 213 221 221 218 4 -2 78 -72 164 -155 86 -84 159 -153 163 -153 4 0 54 50
112 111 58 61 143 151 190 199 47 48 124 128 172 179 l86 91 -136 134 c-76 74
-202 198 -282 275 -80 78 -219 215 -310 305 -91 89 -170 165 -175 168 -6 4
-44 -28 -84 -70z"/>
<path d="M5152 5892 c-60 -64 -149 -157 -197 -207 -48 -49 -147 -154 -221
-232 -75 -78 -165 -173 -202 -211 -37 -38 -141 -147 -232 -242 -91 -95 -174
-183 -186 -194 -51 -53 -55 -44 83 -180 390 -382 446 -435 454 -430 5 3 33 30
61 61 29 30 85 88 123 127 39 40 134 140 212 222 78 82 175 183 215 225 40 42
145 151 233 244 88 92 204 213 257 268 l97 102 -149 145 c-81 80 -177 173
-212 207 -34 33 -70 69 -79 80 -24 26 -122 118 -135 126 -6 3 -60 -46 -122
-111z"/>
<path d="M5418 4848 c-293 -305 -363 -379 -370 -393 -8 -12 16 -37 332 -345
74 -73 310 -304 524 -514 214 -209 404 -396 422 -414 19 -18 34 -36 34 -40 0
-7 -84 -96 -292 -310 l-90 -92 -109 108 c-60 60 -109 107 -109 106 0 -2 -24
22 -52 52 -29 31 -60 60 -70 65 -20 11 -3 26 -265 -247 -239 -250 -303 -318
-303 -324 0 -3 133 -135 296 -295 163 -159 363 -355 444 -435 81 -80 157 -153
168 -164 24 -21 -2 -44 302 274 85 89 187 195 225 234 39 40 147 153 240 251
94 98 197 206 230 240 55 57 274 286 454 474 39 41 71 77 71 82 0 4 -6 14 -14
21 -13 13 -651 638 -916 898 -76 74 -323 317 -549 540 -226 223 -415 406 -420
408 -4 1 -87 -80 -183 -180z"/>
<path d="M3625 4955 c-40 -43 -294 -309 -438 -459 l-77 -81 182 -179 c186
-182 954 -934 1013 -994 28 -27 35 -30 47 -19 7 8 85 89 173 182 88 92 208
217 268 278 l107 112 -237 233 c-131 128 -404 396 -606 595 -202 199 -373 365
-380 368 -7 3 -30 -13 -52 -36z"/>
<path d="M5246 4007 c-33 -36 -211 -223 -421 -441 -212 -221 -358 -373 -480
-501 -77 -81 -186 -194 -242 -252 l-102 -106 -138 136 c-76 74 -166 162 -199
195 l-62 59 60 64 c33 35 110 115 170 177 61 64 106 118 102 124 -7 10 -69 72
-426 420 l-140 138 -102 -107 c-55 -58 -126 -132 -156 -163 -30 -32 -129 -135
-220 -230 -91 -95 -192 -201 -225 -235 -119 -124 -181 -190 -188 -202 -7 -11
30 -49 433 -443 122 -119 470 -461 992 -972 60 -60 113 -108 116 -108 4 0 62
58 129 128 66 70 161 168 210 219 48 50 160 166 248 258 457 478 629 656 743
773 61 64 112 117 112 118 0 1 39 43 88 92 161 166 312 324 317 332 3 4 -52
64 -123 133 -303 299 -446 437 -451 436 -3 0 -23 -19 -45 -42z"/>
</g>
</svg>
